<svg width="267" height="89" viewBox="0 0 267 89" fill="none" xmlns="http://www.w3.org/2000/svg">
<path d="M223.455 46.039C222.517 46.039 221.558 46.039 220.497 46.039C221.429 43.5384 222.345 41.085 223.26 38.6305C223.325 38.6376 223.388 38.6459 223.455 38.6541C223.455 41.0909 223.455 43.5289 223.455 46.039ZM228.559 58.1415C230.881 57.9583 232.236 56.7931 232.482 54.5028C232.629 53.1414 232.497 51.7434 232.419 50.3655C232.168 45.9386 231.892 41.514 231.609 37.0895C231.493 35.2885 231.411 33.4792 231.175 31.6912C230.855 29.2614 229.231 27.5242 226.975 27.0586C225.13 26.6769 223.335 26.8636 221.629 27.6873C219.297 28.8124 217.91 30.7611 216.951 33.0821C214.228 39.6811 211.5 46.2765 208.783 52.8779C208.58 53.3719 208.412 53.8907 208.304 54.4142C207.986 55.9623 208.587 57.2717 209.914 57.787C211.962 58.5823 215.161 58.4145 216.703 55.5924C217.14 54.7959 217.502 53.9569 217.907 53.119C219.802 53.119 221.721 53.119 223.683 53.119C223.746 53.7938 223.785 54.4024 223.863 55.0039C224.108 56.8983 225.265 58.008 227.152 58.1462C227.618 58.1805 228.093 58.1781 228.559 58.1415Z" fill="#FEFEFE"/>
<path d="M113.151 40.3973C112.549 42.1912 111.191 42.8731 109.188 42.6048C109.517 40.7388 109.836 38.92 110.157 37.1013C110.278 36.41 110.383 35.7151 110.534 35.0297C110.57 34.8654 110.734 34.6397 110.879 34.6042C112.511 34.1965 113.818 35.1585 113.739 36.8271C113.682 38.0266 113.53 39.2663 113.151 40.3973ZM115.151 27.0645C112.353 26.8495 109.526 26.8424 106.718 26.9428C104.539 27.0196 103 28.2499 102.241 30.3298C102.025 30.9183 101.903 31.547 101.793 32.1674C100.722 38.1814 99.6501 44.1966 98.6137 50.2177C98.336 51.8285 98.0713 53.4558 98.0027 55.0831C97.9401 56.604 98.9576 57.6794 100.437 58.0139C103.876 58.7915 106.633 56.9798 107.278 53.5161C107.466 52.5033 107.647 51.4905 107.828 50.499C109.232 50.3737 110.547 50.33 111.84 50.1291C115.453 49.5666 118.535 48.0268 120.681 44.9589C122.607 42.2054 123.254 39.0772 123.197 35.7659C123.113 30.832 120.077 27.4451 115.151 27.0645Z" fill="#FEFEFE"/>
<path d="M171.543 55.8134C172.07 55.1067 172.549 54.3291 172.879 53.516C174.055 50.6101 175.171 47.6793 176.284 44.7497C176.94 43.0231 177.64 41.3036 178.158 39.5345C178.696 37.6981 178.032 36.261 176.575 35.6264C174.493 34.7176 172.393 35.3357 171.181 37.249C170.859 37.7595 170.579 38.3102 170.366 38.8763C169.364 41.5483 168.392 44.2332 167.406 46.9111C167.351 47.06 167.264 47.1971 167.19 47.3413C167.092 46.273 167.104 45.2425 167.09 44.212C167.062 42.1498 167.069 40.0841 166.968 38.0242C166.896 36.5364 166.184 35.6252 165.042 35.4066C163.981 35.2033 162.898 35.3227 162.183 36.1736C161.473 37.0185 160.809 37.9746 160.407 38.9933C159.378 41.6026 158.504 44.2734 157.566 46.9194C157.506 47.0908 157.428 47.2562 157.357 47.4252C157.288 47.4134 157.219 47.4004 157.15 47.3874C157.15 44.9494 157.163 42.509 157.142 40.0711C157.136 39.3478 157.083 38.6175 156.968 37.9037C156.748 36.5328 155.916 35.5815 154.651 35.4007C151.866 35.0036 149.424 36.1015 149.407 39.57C149.387 43.9792 149.582 48.3883 149.706 52.7975C149.725 53.451 149.826 54.1081 149.966 54.7474C150.277 56.162 150.913 57.397 152.396 57.8555C154.431 58.4854 156.391 58.2549 158.137 56.9573C159.485 55.954 160.226 54.5134 160.797 52.9819C161.197 51.9124 161.557 50.8287 161.935 49.7509C161.976 49.7521 162.019 49.7533 162.06 49.7545C162.06 50.057 162.045 50.3619 162.064 50.6644C162.154 52.157 162.134 53.6697 162.382 55.1362C162.618 56.5343 163.526 57.508 164.951 57.9323C167.415 58.665 170.007 57.8732 171.543 55.8134Z" fill="#FEFEFE"/>
<path d="M135.243 51.0024C134.998 51.4184 134.459 51.7647 133.982 51.9159C133.033 52.2173 132.26 51.6347 132.084 50.577C132 50.0724 132.005 49.5536 131.97 49.0407C131.918 49.023 131.866 49.0064 131.814 48.9899C132.213 47.2917 132.573 45.5828 133.029 43.9C133.177 43.3552 133.526 42.84 133.873 42.3791C134.436 41.6298 135.288 41.3379 135.971 41.6038C136.775 41.917 137.024 42.6509 136.963 43.38C136.822 45.0735 136.635 46.7741 136.309 48.4404C136.134 49.3338 135.71 50.2095 135.243 51.0024ZM137.817 58.0292C141.078 58.7442 143.681 56.9704 144.309 53.5704C144.785 50.9942 145.243 48.4132 145.694 45.8322C146.07 43.6873 146.464 41.5471 146.778 39.3939C147.125 37.0186 145.743 35.4433 143.351 35.3452C141.501 35.2695 139.889 35.7813 138.579 37.2041C137.808 36.0684 136.79 35.3192 135.496 35.0899C132.484 34.5546 129.765 35.2164 127.475 37.3034C125.556 39.0512 124.505 41.3131 123.881 43.7806C123.093 46.897 122.689 50.0499 123.482 53.2277C124.705 58.125 130.21 60.2356 134.243 57.3674C134.729 57.0224 135.139 56.5721 135.622 56.136C136.043 57.1512 136.752 57.7941 137.817 58.0292Z" fill="#FEFEFE"/>
<path d="M189.179 41.384C189.921 41.3628 190.666 41.4372 191.41 41.4786C192.641 41.5471 193.886 41.7693 195.099 41.657C196.646 41.514 197.791 40.1054 197.938 38.5194C198.05 37.3081 197.283 36.2575 195.791 35.6466C193.982 34.9056 192.066 34.6976 190.142 34.6881C187.285 34.6728 184.543 35.1786 182.17 36.9252C177.753 40.1751 178.411 46.3097 183.403 48.4924C183.49 48.529 183.576 48.5668 183.662 48.5999C184.752 49.0206 185.848 49.4224 186.928 49.868C187.412 50.0653 187.756 50.4281 187.669 51.0131C187.581 51.6099 187.222 52.0483 186.632 52.0921C185.896 52.1464 185.144 52.0921 184.407 52.02C183.059 51.8864 181.719 51.5839 180.376 51.5744C178.703 51.5603 177.503 52.7574 177.172 54.4816C176.914 55.8158 177.609 56.9999 179.091 57.7196C179.447 57.8922 179.819 58.0683 180.202 58.1439C181.668 58.4299 183.143 58.6757 184.762 58.964C186.465 58.743 188.301 58.6402 190.073 58.2491C194.154 57.3486 196.24 54.8905 196.511 50.8382C196.638 48.9355 196.008 47.3083 194.406 46.1986C193.546 45.603 192.601 45.1196 191.656 44.6658C190.752 44.2321 189.788 43.9225 188.867 43.5207C188.386 43.3103 188.055 42.9263 188.14 42.3578C188.228 41.7847 188.6 41.4006 189.179 41.384Z" fill="#FEFEFE"/>
<path d="M265.035 35.019C264.384 34.8937 263.679 34.9209 263.015 35.0048C261.371 35.214 260.028 36.0235 258.943 37.2809C258.281 36.2031 257.857 35.8333 256.981 35.5555C254.275 34.6952 251.583 36.0058 250.617 38.6707C250.434 39.1741 250.303 39.7012 250.208 40.2271C249.548 43.8646 248.88 47.4997 248.269 51.1443C248.037 52.5234 247.84 53.9261 247.833 55.3171C247.826 56.7482 248.765 57.7042 250.15 58.0198C253.251 58.7288 255.831 57.1287 256.529 53.9769C256.934 52.1511 257.175 50.2898 257.54 48.4545C257.876 46.7611 258.195 45.0558 258.682 43.4037C259.054 42.1439 260.015 41.4797 261.404 41.5187C262.033 41.5365 262.671 41.4703 263.295 41.3828C265.301 41.1039 266.542 39.908 266.93 37.9179C267.228 36.3993 266.561 35.3109 265.035 35.019Z" fill="#FEFEFE"/>
<path d="M245.987 44.4625C246.315 42.6201 246.629 40.7766 246.851 39.4967C246.878 36.833 245.967 35.6312 244.018 35.4066C243.202 35.3121 242.314 35.3771 241.523 35.5957C239.265 36.2197 238.354 37.9994 237.967 40.1231C237.301 43.7605 236.642 47.3992 236.034 51.0461C235.798 52.4714 235.598 53.9202 235.587 55.3608C235.575 56.7458 236.522 57.7007 237.873 58.0162C240.993 58.7489 243.62 57.1299 244.28 53.9285C244.926 50.7885 245.428 47.6202 245.987 44.4625Z" fill="#FEFEFE"/>
<path d="M243.567 33.53C245.878 33.5312 247.979 31.8389 248.482 29.5722C249.018 27.1591 247.588 25.1666 245.21 25.0094C242.724 24.8452 240.277 26.8494 239.946 29.3193C239.625 31.7266 241.175 33.53 243.567 33.53Z" fill="#FEFEFE"/>
<path d="M99.0298 74.6709H100.011V71.8949H103.453V71.0511H100.011V68.658H103.876V67.8048H99.0298V74.6709Z" fill="#FEFEFE"/>
<path d="M110.591 72.5863C110.358 72.9881 110.041 73.3048 109.638 73.5329C109.238 73.7621 108.784 73.8768 108.28 73.8768C107.777 73.8768 107.32 73.7621 106.912 73.5329C106.503 73.3048 106.183 72.9881 105.951 72.5863C105.718 72.1845 105.602 71.7342 105.602 71.2367C105.602 70.7403 105.718 70.2913 105.951 69.8883C106.183 69.4865 106.503 69.171 106.912 68.9429C107.32 68.7136 107.777 68.599 108.28 68.599C108.784 68.599 109.238 68.7136 109.638 68.9429C110.041 69.171 110.358 69.4865 110.591 69.8883C110.822 70.2913 110.939 70.7403 110.939 71.2367C110.939 71.7342 110.822 72.1845 110.591 72.5863ZM110.144 68.1818C109.589 67.8781 108.967 67.7256 108.28 67.7256C107.587 67.7256 106.963 67.8781 106.406 68.1818C105.851 68.4855 105.415 68.9062 105.097 69.4416C104.78 69.9781 104.622 70.5761 104.622 71.2367C104.622 71.8985 104.78 72.4964 105.097 73.033C105.415 73.5695 105.851 73.989 106.406 74.2939C106.963 74.5976 107.587 74.7489 108.28 74.7489C108.967 74.7489 109.589 74.5976 110.144 74.2939C110.701 73.989 111.135 73.5707 111.449 73.0377C111.763 72.5047 111.92 71.9044 111.92 71.2367C111.92 70.5702 111.763 69.971 111.449 69.438C111.135 68.9051 110.701 68.4855 110.144 68.1818Z" fill="#FEFEFE"/>
<path d="M116.07 71.7472H114.402V68.658H116.07C116.692 68.658 117.165 68.7904 117.493 69.0539C117.82 69.3198 117.983 69.7004 117.983 70.1979C117.983 70.6942 117.82 71.0771 117.493 71.3454C117.165 71.6137 116.692 71.7472 116.07 71.7472ZM118.572 71.5522C118.833 71.1788 118.964 70.7273 118.964 70.1979C118.964 69.4522 118.709 68.8672 118.198 68.4418C117.689 68.0163 116.989 67.8048 116.099 67.8048H113.42V74.6709H114.402V72.5815H116.099C116.203 72.5815 116.348 72.5756 116.531 72.5614L118.013 74.6709H119.081L117.454 72.3653C117.937 72.1963 118.309 71.9245 118.572 71.5522Z" fill="#FEFEFE"/>
<path d="M127.262 71.3407C126.936 71.6054 126.461 71.7377 125.84 71.7377H124.173V68.658H125.84C126.461 68.658 126.936 68.7904 127.262 69.0539C127.589 69.3198 127.753 69.7004 127.753 70.1979C127.753 70.6942 127.589 71.0748 127.262 71.3407ZM125.869 67.8048H123.191V74.6709H124.173V72.591H125.869C126.759 72.591 127.459 72.3794 127.969 71.9528C128.479 71.5286 128.735 70.9436 128.735 70.1979C128.735 69.4522 128.479 68.8672 127.969 68.4418C127.459 68.0163 126.759 67.8048 125.869 67.8048Z" fill="#FEFEFE"/>
<path d="M131.157 71.6007H134.6V70.7663H131.157V68.658H135.022V67.8048H130.175V74.6709H135.16V73.8176H131.157V71.6007Z" fill="#FEFEFE"/>
<path d="M135.758 68.658H138.112V74.6709H139.083V68.658H141.437V67.8048H135.758V68.658Z" fill="#FEFEFE"/>
<path d="M145.93 71.1989C145.617 71.0736 145.201 70.9495 144.685 70.8254C144.285 70.7344 143.97 70.647 143.738 70.5654C143.505 70.4839 143.311 70.3693 143.154 70.2215C142.997 70.075 142.919 69.8836 142.919 69.6484C142.919 69.3281 143.057 69.0658 143.335 68.8637C143.614 68.6604 144.03 68.56 144.587 68.56C144.901 68.56 145.221 68.6072 145.549 68.7018C145.875 68.7963 146.182 68.9358 146.47 69.119L146.794 68.3343C146.513 68.1381 146.176 67.9868 145.784 67.8828C145.391 67.7788 144.992 67.7256 144.587 67.7256C144.004 67.7256 143.517 67.8131 143.125 67.9904C142.732 68.1676 142.439 68.4028 142.247 68.6971C142.054 68.9913 141.957 69.321 141.957 69.6886C141.957 70.1258 142.071 70.4744 142.296 70.7332C142.521 70.9909 142.793 71.1823 143.111 71.3064C143.427 71.4305 143.844 71.5546 144.361 71.6787C144.773 71.7779 145.092 71.8654 145.317 71.9434C145.544 72.0226 145.733 72.1348 145.887 72.2825C146.04 72.4291 146.117 72.6205 146.117 72.8569C146.117 73.176 145.976 73.4336 145.695 73.6262C145.414 73.8188 144.988 73.9158 144.42 73.9158C143.989 73.9158 143.568 73.8425 143.159 73.6948C142.75 73.5482 142.416 73.3568 142.153 73.1204L141.791 73.8862C142.066 74.1415 142.443 74.3495 142.924 74.509C143.405 74.6697 143.904 74.7489 144.42 74.7489C145.001 74.7489 145.492 74.6626 145.891 74.4889C146.29 74.3164 146.587 74.0812 146.785 73.7834C146.98 73.4856 147.078 73.1571 147.078 72.7978C147.078 72.3653 146.965 72.0226 146.74 71.7673C146.514 71.512 146.245 71.323 145.93 71.1989Z" fill="#FEFEFE"/>
<path d="M152.218 72.1691L153.7 68.8046L155.181 72.1691H152.218ZM153.219 67.8048L150.109 74.6709H151.119L151.874 72.9538H155.525L156.28 74.6709H157.309L154.19 67.8048H153.219Z" fill="#FEFEFE"/>
<path d="M163.255 72.9254L159.135 67.8048H158.331V74.6709H159.313V69.5503L163.432 74.6709H164.236V67.8048H163.255V72.9254Z" fill="#FEFEFE"/>
<path d="M171.574 72.5862C171.346 72.975 171.019 73.2776 170.599 73.4938C170.177 73.7101 169.688 73.8176 169.131 73.8176H167.278V68.658H169.131C169.688 68.658 170.177 68.7656 170.599 68.9819C171.019 69.1969 171.346 69.4995 171.574 69.8883C171.803 70.2783 171.918 70.7273 171.918 71.2367C171.918 71.7472 171.803 72.1974 171.574 72.5862ZM171.123 68.235C170.561 67.9478 169.916 67.8048 169.19 67.8048H166.296V74.6709H169.19C169.916 74.6709 170.561 74.5267 171.123 74.2395C171.685 73.9512 172.122 73.5482 172.433 73.0282C172.744 72.5071 172.898 71.9115 172.898 71.2367C172.898 70.5642 172.744 69.9674 172.433 69.4475C172.122 68.9275 171.685 68.5233 171.123 68.235Z" fill="#FEFEFE"/>
<path d="M176.048 68.658H178.402V74.6709H179.373V68.658H181.727V67.8048H176.048V68.658Z" fill="#FEFEFE"/>
<path d="M187.722 70.7569H183.778V67.8048H182.796V74.6709H183.778V71.6101H187.722V74.6709H188.702V67.8048H187.722V70.7569Z" fill="#FEFEFE"/>
<path d="M191.743 71.6007H195.186V70.7663H191.743V68.658H195.609V67.8048H190.761V74.6709H195.746V73.8176H191.743V71.6007Z" fill="#FEFEFE"/>
<path d="M197.334 74.6709H198.316V67.8048H197.334V74.6709Z" fill="#FEFEFE"/>
<path d="M203.024 71.7472H201.356V68.658H203.024C203.645 68.658 204.119 68.7904 204.445 69.0539C204.774 69.3198 204.937 69.7004 204.937 70.1979C204.937 70.6942 204.774 71.0771 204.445 71.3454C204.119 71.6137 203.645 71.7472 203.024 71.7472ZM205.526 71.5522C205.787 71.1788 205.918 70.7273 205.918 70.1979C205.918 69.4522 205.663 68.8672 205.152 68.4418C204.643 68.0163 203.943 67.8048 203.053 67.8048H200.375V74.6709H201.356V72.5815H203.053C203.159 72.5815 203.302 72.5756 203.485 72.5614L204.967 74.6709H206.036L204.408 72.3653C204.891 72.1963 205.264 71.9245 205.526 71.5522Z" fill="#FEFEFE"/>
<path d="M215.073 70.7569H211.128V67.8048H210.147V74.6709H211.128V71.6101H215.073V74.6709H216.052V67.8048H215.073V70.7569Z" fill="#FEFEFE"/>
<path d="M223.522 72.5863C223.29 72.9881 222.972 73.3048 222.571 73.5329C222.169 73.7621 221.716 73.8768 221.211 73.8768C220.708 73.8768 220.252 73.7621 219.844 73.5329C219.434 73.3048 219.114 72.9881 218.882 72.5863C218.651 72.1845 218.534 71.7342 218.534 71.2367C218.534 70.7403 218.651 70.2913 218.882 69.8883C219.114 69.4865 219.434 69.171 219.844 68.9429C220.252 68.7136 220.708 68.599 221.211 68.599C221.716 68.599 222.169 68.7136 222.571 68.9429C222.972 69.171 223.29 69.4865 223.522 69.8883C223.755 70.2913 223.87 70.7403 223.87 71.2367C223.87 71.7342 223.755 72.1845 223.522 72.5863ZM223.076 68.1818C222.52 67.8781 221.899 67.7256 221.211 67.7256C220.518 67.7256 219.894 67.8781 219.338 68.1818C218.782 68.4855 218.346 68.9062 218.028 69.4416C217.711 69.9781 217.553 70.5761 217.553 71.2367C217.553 71.8985 217.711 72.4964 218.028 73.033C218.346 73.5695 218.782 73.989 219.338 74.2939C219.894 74.5976 220.518 74.7489 221.211 74.7489C221.899 74.7489 222.52 74.5976 223.076 74.2939C223.632 73.989 224.067 73.5707 224.38 73.0377C224.695 72.5047 224.851 71.9044 224.851 71.2367C224.851 70.5702 224.695 69.971 224.38 69.438C224.067 68.9051 223.632 68.4855 223.076 68.1818Z" fill="#FEFEFE"/>
<path d="M231.763 72.5863C231.53 72.9881 231.213 73.3048 230.811 73.5329C230.409 73.7621 229.956 73.8768 229.452 73.8768C228.949 73.8768 228.493 73.7621 228.084 73.5329C227.675 73.3048 227.355 72.9881 227.123 72.5863C226.89 72.1845 226.774 71.7342 226.774 71.2367C226.774 70.7403 226.89 70.2913 227.123 69.8883C227.355 69.4865 227.675 69.171 228.084 68.9429C228.493 68.7136 228.949 68.599 229.452 68.599C229.956 68.599 230.409 68.7136 230.811 68.9429C231.213 69.171 231.53 69.4865 231.763 69.8883C231.994 70.2913 232.111 70.7403 232.111 71.2367C232.111 71.7342 231.994 72.1845 231.763 72.5863ZM231.316 68.1818C230.76 67.8781 230.14 67.7256 229.452 67.7256C228.76 67.7256 228.135 67.8781 227.579 68.1818C227.022 68.4855 226.586 68.9062 226.269 69.4416C225.952 69.9781 225.793 70.5761 225.793 71.2367C225.793 71.8985 225.952 72.4964 226.269 73.033C226.586 73.5695 227.022 73.989 227.579 74.2939C228.135 74.5976 228.76 74.7489 229.452 74.7489C230.14 74.7489 230.76 74.5976 231.316 74.2939C231.872 73.989 232.307 73.5707 232.622 73.0377C232.935 72.5047 233.092 71.9044 233.092 71.2367C233.092 70.5702 232.935 69.971 232.622 69.438C232.307 68.9051 231.872 68.4855 231.316 68.1818Z" fill="#FEFEFE"/>
<path d="M241.087 67.8048L238.262 72.6312L235.398 67.8048H234.593V74.6709H235.535V69.6968L238.016 73.8366H238.468L240.95 69.6673L240.96 74.6709H241.901L241.891 67.8048H241.087Z" fill="#FEFEFE"/>
<path d="M245.03 72.1691L246.512 68.8046L247.994 72.1691H245.03ZM246.031 67.8048L242.922 74.6709H243.932L244.687 72.9538H248.337L249.092 74.6709H250.122L247.003 67.8048H246.031Z" fill="#FEFEFE"/>
<path d="M256.067 72.9254L251.947 67.8048H251.143V74.6709H252.123V69.5503L256.244 74.6709H257.048V67.8048H256.067V72.9254Z" fill="#FEFEFE"/>
<path d="M262.62 71.1989C262.305 71.0736 261.891 70.9495 261.373 70.8254C260.974 70.7344 260.659 70.647 260.426 70.5654C260.195 70.4839 260 70.3693 259.844 70.2215C259.687 70.075 259.609 69.8836 259.609 69.6484C259.609 69.3281 259.747 69.0658 260.025 68.8637C260.303 68.6604 260.719 68.56 261.276 68.56C261.589 68.56 261.911 68.6072 262.237 68.7018C262.564 68.7963 262.871 68.9358 263.159 69.119L263.484 68.3343C263.202 68.1381 262.864 67.9868 262.472 67.8828C262.08 67.7788 261.681 67.7256 261.276 67.7256C260.693 67.7256 260.207 67.8131 259.814 67.9904C259.422 68.1676 259.129 68.4028 258.936 68.6971C258.744 68.9913 258.647 69.321 258.647 69.6886C258.647 70.1258 258.76 70.4744 258.986 70.7332C259.21 70.9909 259.482 71.1823 259.799 71.3064C260.117 71.4305 260.533 71.5546 261.05 71.6787C261.463 71.7779 261.781 71.8654 262.006 71.9434C262.232 72.0226 262.421 72.1348 262.575 72.2825C262.728 72.4291 262.805 72.6205 262.805 72.8569C262.805 73.176 262.666 73.4336 262.383 73.6262C262.103 73.8188 261.678 73.9158 261.109 73.9158C260.677 73.9158 260.256 73.8425 259.848 73.6948C259.44 73.5482 259.104 73.3568 258.843 73.1204L258.48 73.8862C258.754 74.1415 259.132 74.3495 259.613 74.509C260.093 74.6697 260.592 74.7489 261.109 74.7489C261.691 74.7489 262.181 74.6626 262.58 74.4889C262.979 74.3164 263.277 74.0812 263.473 73.7834C263.669 73.4856 263.767 73.1571 263.767 72.7978C263.767 72.3653 263.654 72.0226 263.429 71.7673C263.204 71.512 262.933 71.323 262.62 71.1989Z" fill="#FEFEFE"/>
<path d="M69.7032 41.3614C74.6141 42.3464 77.1757 38.8445 78.4252 32.593C79.6761 26.343 79.1426 19.7089 74.2318 18.7239C69.321 17.7403 64.326 22.0102 63.0751 28.2603C61.8242 34.5117 64.7924 40.3778 69.7032 41.3614Z" fill="#FEFEFE"/>
<path d="M50.2168 29.1997C55.9948 28.8985 58.5679 20.4413 58.1856 13.0863C57.8019 5.73133 55.3529 -0.291722 49.5749 0.0109296C43.7969 0.312154 39.4252 6.51937 39.8075 13.8758C40.1911 21.2308 44.4387 29.5023 50.2168 29.1997Z" fill="#FEFEFE"/>
<path d="M13.8496 49.3974C18.2811 47.0604 19.338 40.4806 15.35 35.5097C10.9712 30.0549 7.52952 26.6357 3.09794 28.9713C-1.33222 31.3083 -0.263901 36.9273 1.703 42.6991C3.75975 48.7336 9.41798 51.733 13.8496 49.3974Z" fill="#FEFEFE"/>
<path d="M28.7594 32.2048C34.3862 30.8557 35.2762 24.9383 33.5618 17.776C31.8488 10.6137 26.7026 3.00745 21.0772 4.35653C15.4489 5.70561 13.753 14.5153 15.4675 21.6776C17.1805 28.8399 23.1325 33.5539 28.7594 32.2048Z" fill="#FEFEFE"/>
<path d="M42.8346 63.6833L39.1904 66.1131C39.0706 66.1859 39.0677 66.3601 39.1861 66.4372L42.8033 68.8327C42.8446 68.8598 42.8945 68.8698 42.9445 68.8612L44.4949 68.6614C44.6361 68.6357 44.7573 68.7699 44.716 68.9069C44.6204 69.2296 44.5063 69.5422 44.3765 69.842C44.2082 70.2346 43.8587 70.5187 43.4408 70.6043L42.053 70.8884C41.3256 71.0155 40.825 70.8856 39.8764 70.3916C38.9265 69.8963 37.6557 69.034 35.7615 67.6835L26.3364 60.9666C25.5747 60.1943 25.4221 59.0936 26.1895 58.8837C27.0823 58.6396 28.5586 58.8252 30.4299 60.0658C32.0944 61.1679 34.5349 62.7126 34.9271 63.0809C34.9756 63.1266 35.0398 63.1423 35.104 63.1251C35.7915 62.941 39.1947 62.0673 40.4798 62.013C41.337 61.9773 42.2598 62.4584 42.8503 62.841C43.1584 63.0395 43.147 63.492 42.8346 63.6833ZM34.7659 71.4366C34.2168 71.4324 32.6022 70.1932 32.0288 69.0768C31.745 68.5229 31.3841 66.9625 30.9519 65.7862C30.8863 65.6077 31.0903 65.4507 31.2443 65.5606L34.4336 67.8576C34.4778 67.8876 34.5063 67.9362 34.512 67.989C34.512 67.989 34.9913 71.4395 34.7659 71.4366ZM40.5782 37.0457C30.7066 38.1407 31.4911 47.3944 22.752 55.0164C12.996 63.5263 9.47296 81.4084 23.1214 87.3087C30.3344 90.4266 36.7328 85.774 42.528 81.7539C45.2038 79.8966 47.8211 79.5783 50.6438 80.0037C51.1159 80.0736 51.3583 79.4512 50.9661 79.1785C47.7811 76.9757 44.8015 73.5723 44.8015 72.4545C44.8015 72.1519 47.0309 73.2283 49.3601 74.4532C49.1005 74.3804 48.838 74.279 48.567 74.1334C50.2829 75.0513 52.0672 76.0606 53.9115 76.9629C53.9157 76.9643 53.92 76.9672 53.9243 76.9686C54.6232 77.3812 55.3863 77.7224 56.195 77.995C58.6896 79.0243 61.2813 79.7296 63.9513 79.6482C68.6497 79.5083 73.4578 76.4432 75.6386 71.7464C75.7285 71.5523 75.7741 71.3952 75.7984 71.2582C76.7611 68.8769 76.6656 65.9789 74.9454 62.6283C72.3624 57.596 67.9265 56.157 64.6089 51.71C57.7982 42.5777 50.4954 35.9464 40.5782 37.0457Z" fill="#FEFEFE"/>
</svg>
