<svg width="18" height="18" viewBox="0 0 18 18" fill="none" xmlns="http://www.w3.org/2000/svg">
<path d="M11.8203 10.25L15.3359 6.73438C15.793 6.3125 15.793 5.60938 15.3359 5.1875L14.5625 4.41406C14.1406 3.95703 13.4375 3.95703 13.0156 4.41406L9.5 7.92969L5.94922 4.41406C5.52734 3.95703 4.82422 3.95703 4.40234 4.41406L3.62891 5.1875C3.17188 5.60938 3.17188 6.3125 3.62891 6.73438L7.14453 10.25L3.62891 13.8008C3.17188 14.2227 3.17188 14.9258 3.62891 15.3477L4.40234 16.1211C4.82422 16.5781 5.52734 16.5781 5.94922 16.1211L9.5 12.6055L13.0156 16.1211C13.4375 16.5781 14.1406 16.5781 14.5625 16.1211L15.3359 15.3477C15.793 14.9258 15.793 14.2227 15.3359 13.8008L11.8203 10.25Z" fill="#1B1D21"/>
</svg>
