<svg width="26" height="26" viewBox="0 0 26 26" fill="none" xmlns="http://www.w3.org/2000/svg">
<path fill-rule="evenodd" clip-rule="evenodd" d="M18.2562 23.9259C19.72 23.9259 21.1016 23.3671 22.1466 22.3525C23.1916 21.3379 23.7671 19.9965 23.7671 18.5754V7.4371C23.7671 6.016 23.1916 4.67454 22.1466 3.65999C21.1016 2.64539 19.72 2.08664 18.2562 2.08664H7.49013C6.02637 2.08664 4.64475 2.64539 3.59973 3.65999C2.5547 4.67454 1.9792 6.016 1.9792 7.4371V18.5754C1.9792 19.9965 2.5547 21.3379 3.59973 22.3525C4.64475 23.3671 6.02637 23.9259 7.49013 23.9259H18.2562ZM18.2563 25.8474H7.49013C3.37054 25.8474 0 22.575 0 18.5754V7.4371C0 3.43748 3.37054 0.165039 7.49013 0.165039H18.2563C22.3758 0.165039 25.7463 3.43748 25.7463 7.4371V18.5754C25.7463 22.575 22.3758 25.8474 18.2563 25.8474Z" fill="black"/>
<path fill-rule="evenodd" clip-rule="evenodd" d="M12.8788 8.40545C10.3149 8.40545 8.23642 10.4235 8.23642 12.9128C8.23642 15.4021 10.3149 17.4201 12.8788 17.4201C15.4428 17.4201 17.5213 15.4021 17.5213 12.9128C17.5213 10.4235 15.4428 8.40545 12.8788 8.40545ZM20.0027 12.9073C20.0027 16.7089 16.8285 19.7907 12.913 19.7907C8.99739 19.7907 5.82324 16.7089 5.82324 12.9073C5.82324 9.10574 8.99739 6.02393 12.913 6.02393C16.8285 6.02393 20.0027 9.10574 20.0027 12.9073Z" fill="black"/>
<path fill-rule="evenodd" clip-rule="evenodd" d="M21.795 5.91652C21.795 6.81665 21.0434 7.54641 20.1163 7.54641C19.1891 7.54641 18.4375 6.81665 18.4375 5.91652C18.4375 5.01638 19.1891 4.28662 20.1163 4.28662C21.0434 4.28662 21.795 5.01638 21.795 5.91652Z" fill="black"/>
</svg>
